<svg xmlns="http://www.w3.org/2000/svg" width="221.87" height="278.56" viewBox="0 0 221.87 278.56"><title>bejebeje-logo</title><path d="M315.94,249.06a84.69,84.69,0,0,1-3.59,24.44c-5.63,15.59-22.53,6.82-24.31,5.84l-.13-.06,0,0-70.76-42.65a21.45,21.45,0,0,0-24.95,2l-17.67,15a13.45,13.45,0,0,1-15.89,1.16h0l-24.67-15.41a13.38,13.38,0,0,0-13.9-.21l-17,9.94,0-.1s-8.55,4-9-6.49V140a79.27,79.27,0,1,1,154.11,26.14,84.65,84.65,0,0,1,67.77,82.93" transform="translate(-94.06 -60.72)" style="fill:#343838"/><path d="M287.24,299.39a11.12,11.12,0,0,1,1.48,17.45,84.28,84.28,0,0,1-54.31,22.39l-.61,0-2.47,0H220.06a5.92,5.92,0,0,1-5.8-7.11c1.55-7.51,3.75-17.71,5.26-24.62a9.38,9.38,0,0,0-5.57-10.7,17,17,0,0,1-10.33-13.42,185.88,185.88,0,0,1-1.18-22.21,9.12,9.12,0,0,1,14.15-7.48s48.49,31.12,70.65,45.65" transform="translate(-94.06 -60.72)" style="fill:#343838"/><path d="M108.31,306.24s8.91-12.88,11.89-18.72a3.78,3.78,0,0,0-2.37-5.44h0a4.52,4.52,0,0,1-3.12-6.46l9.64-19.15a4.52,4.52,0,0,1,6.49-1.77l23,14.82a4.53,4.53,0,0,1,.47,7.25l-40,33.36c-3.46,2.93-7.22.44-5.87-3.88" transform="translate(-94.06 -60.72)" style="fill:#343838"/><path d="M315.94,249.06a84.69,84.69,0,0,1-3.59,24.44c-5.63,15.59-22.53,6.82-24.31,5.84l-.13-.06,0,0-70.76-42.65a21.45,21.45,0,0,0-24.95,2l-17.67,15a13.45,13.45,0,0,1-15.89,1.16h0l-24.67-15.41a13.38,13.38,0,0,0-13.9-.21l-17,9.94,0-.1s-8.55,4-9-6.49V140a79.27,79.27,0,1,1,154.11,26.14,84.65,84.65,0,0,1,67.77,82.93" transform="translate(-94.06 -60.72)" style="fill:#ededed"/><path d="M287.24,299.39a11.12,11.12,0,0,1,1.48,17.45,84.28,84.28,0,0,1-54.31,22.39l-.61,0-2.47,0H220.06a5.92,5.92,0,0,1-5.8-7.11c1.55-7.51,3.75-17.71,5.26-24.62a9.38,9.38,0,0,0-5.57-10.7,17,17,0,0,1-10.33-13.42,185.88,185.88,0,0,1-1.18-22.21,9.12,9.12,0,0,1,14.15-7.48s48.49,31.12,70.65,45.65" transform="translate(-94.06 -60.72)" style="fill:#ededed"/><path d="M108.31,306.24s8.91-12.88,11.89-18.72a3.78,3.78,0,0,0-2.37-5.44h0a4.52,4.52,0,0,1-3.12-6.46l9.64-19.15a4.52,4.52,0,0,1,6.49-1.77l23,14.82a4.53,4.53,0,0,1,.47,7.25l-40,33.36c-3.46,2.93-7.22.44-5.87-3.88" transform="translate(-94.06 -60.72)" style="fill:#ededed"/></svg>