<?xml version="1.0" standalone="no"?>
<!DOCTYPE svg PUBLIC "-//W3C//DTD SVG 20010904//EN"
 "http://www.w3.org/TR/2001/REC-SVG-20010904/DTD/svg10.dtd">
<svg version="1.0" xmlns="http://www.w3.org/2000/svg"
 width="260.000000pt" height="260.000000pt" viewBox="0 0 260.000000 260.000000"
 preserveAspectRatio="xMidYMid meet">
<metadata>
Created by potrace 1.11, written by Peter Selinger 2001-2013
</metadata>
<g transform="translate(0.000000,260.000000) scale(0.100000,-0.100000)"
fill="#000000" stroke="none">
<path d="M975 2397 c-216 -45 -376 -167 -465 -353 -56 -116 -60 -160 -60 -658
0 -551 -10 -523 150 -431 112 65 113 64 270 -33 159 -100 162 -100 305 24 85
73 124 90 196 85 9 -1 147 -79 305 -174 341 -206 347 -209 393 -212 95 -7 130
57 137 250 5 149 -33 279 -116 400 -83 120 -248 239 -363 260 -21 4 -39 11
-42 15 -3 5 1 39 9 77 18 84 14 227 -9 303 -58 189 -203 347 -382 413 -105 39
-238 53 -328 34z"/>
<path d="M1335 866 c-27 -27 -27 -30 -25 -121 3 -128 19 -172 80 -210 41 -26
59 -50 55 -75 -1 -8 -13 -64 -25 -125 -22 -108 -22 -109 -2 -125 20 -17 123
-20 229 -6 108 14 252 81 334 157 33 30 39 42 39 76 0 49 -16 65 -145 147 -52
34 -178 115 -280 180 -102 66 -196 121 -210 123 -17 3 -34 -5 -50 -21z"/>
<path d="M693 858 c-21 -29 -83 -159 -83 -174 0 -9 11 -25 25 -36 14 -11 25
-23 25 -28 0 -5 -22 -45 -50 -88 -54 -86 -57 -94 -36 -111 11 -9 29 0 87 47
177 141 274 229 277 250 3 18 -15 33 -98 87 -101 65 -130 76 -147 53z"/>
</g>
</svg>
