<?xml version="1.0" standalone="no"?>
<!DOCTYPE svg PUBLIC "-//W3C//DTD SVG 20010904//EN"
 "http://www.w3.org/TR/2001/REC-SVG-20010904/DTD/svg10.dtd">
<svg version="1.0" xmlns="http://www.w3.org/2000/svg"
 width="260.000000pt" height="260.000000pt" viewBox="0 0 260.000000 260.000000"
 preserveAspectRatio="xMidYMid meet">
<metadata>
Created by potrace 1.11, written by Peter Selinger 2001-2013
</metadata>
<g transform="translate(0.000000,260.000000) scale(0.100000,-0.100000)"
fill="#000000" stroke="none">
<path d="M0 1300 l0 -1300 1300 0 1300 0 0 1300 0 1300 -1300 0 -1300 0 0
-1300z m1427 681 c202 -16 297 -87 310 -232 12 -123 -78 -282 -226 -403 l-34
-27 24 -16 c47 -33 93 -89 122 -151 27 -57 29 -71 25 -137 -10 -146 -101 -271
-252 -346 -136 -66 -285 -85 -425 -54 -78 18 -111 43 -111 84 0 21 249 930
297 1086 5 16 -3 12 -38 -16 -24 -19 -50 -39 -56 -43 -22 -13 -50 12 -56 49
-10 63 4 82 100 128 49 23 90 45 92 50 13 32 44 49 79 43 21 -4 87 -10 149
-15z"/>
<path d="M1335 1891 c-16 -7 -33 -50 -79 -207 -70 -235 -99 -345 -92 -351 2
-2 19 3 38 13 21 11 58 17 107 18 l73 1 59 62 c82 88 131 193 136 293 5 89
-13 133 -68 162 -36 19 -136 24 -174 9z"/>
<path d="M1330 1239 c-85 -37 -141 -38 -168 -4 -11 14 -23 22 -25 18 -4 -7
-60 -256 -111 -490 l-13 -62 30 -11 c44 -15 87 -12 159 10 120 37 205 111 262
230 27 56 31 76 31 147 0 74 -3 85 -30 124 -49 68 -60 71 -135 38z"/>
</g>
</svg>
