<?xml version="1.0" standalone="no"?>
<!DOCTYPE svg PUBLIC "-//W3C//DTD SVG 20010904//EN"
 "http://www.w3.org/TR/2001/REC-SVG-20010904/DTD/svg10.dtd">
<svg version="1.0" xmlns="http://www.w3.org/2000/svg"
 width="542.000000pt" height="542.000000pt" viewBox="0 0 542.000000 542.000000"
 preserveAspectRatio="xMidYMid meet">
<metadata>
Created by potrace 1.11, written by Peter Selinger 2001-2013
</metadata>
<g transform="translate(0.000000,542.000000) scale(0.100000,-0.100000)"
fill="#000000" stroke="none">
<path d="M2490 5107 c-47 -30 -73 -61 -106 -128 -22 -45 -35 -59 -63 -69 -147
-52 -447 -193 -558 -263 -35 -23 -45 -36 -58 -81 -15 -53 -21 -157 -11 -206 3
-14 8 -38 12 -55 8 -43 49 -102 81 -118 37 -19 93 -15 130 8 17 11 59 45 94
76 88 78 219 181 219 172 0 -5 -10 -42 -21 -83 -11 -41 -22 -82 -24 -90 -2 -8
-15 -53 -28 -100 -14 -47 -120 -422 -235 -835 -116 -412 -234 -831 -262 -930
-28 -99 -53 -187 -55 -196 -6 -27 -256 -922 -270 -969 -18 -58 -92 -328 -99
-360 -3 -14 -14 -54 -25 -89 -15 -46 -19 -85 -17 -145 3 -103 24 -148 90 -193
79 -54 340 -128 526 -150 82 -9 321 -9 420 1 587 55 1105 313 1403 699 54 70
157 228 157 242 0 2 11 28 24 57 32 70 72 199 85 273 6 33 13 76 17 95 7 45 8
210 1 236 -3 10 -9 39 -12 64 -13 92 -73 246 -139 355 -85 142 -230 295 -370
390 -87 59 -96 69 -73 78 30 12 226 176 311 260 271 271 458 557 545 837 10
33 17 60 15 60 -2 0 1 12 6 26 24 62 33 241 18 354 -21 156 -98 308 -216 429
-123 126 -338 234 -537 270 -33 6 -71 13 -85 16 -35 8 -192 18 -270 18 -71 0
-253 -13 -258 -18 -2 -2 -20 8 -39 21 -49 33 -124 54 -213 59 -65 4 -80 1
-110 -18z m831 -333 c201 -55 328 -207 357 -426 29 -228 -30 -495 -170 -767
-100 -194 -214 -350 -363 -496 -84 -83 -207 -180 -216 -170 -9 8 -100 17 -219
20 -101 3 -140 -1 -200 -17 -96 -25 -195 -67 -254 -107 -26 -17 -49 -31 -51
-31 -2 0 4 30 14 68 10 37 24 92 31 122 7 30 30 120 52 200 21 80 41 153 43
163 9 41 271 921 342 1151 l78 250 50 13 c105 29 122 33 185 39 36 4 66 8 68
9 11 10 199 -6 253 -21z m-1112 -2268 c49 -79 146 -122 255 -113 93 8 359 106
534 197 l43 22 39 -27 c21 -15 64 -53 95 -84 157 -160 233 -343 229 -551 -5
-250 -93 -515 -243 -735 -258 -377 -692 -627 -1111 -639 -98 -3 -279 27 -318
53 -11 7 -12 19 -3 62 6 30 13 63 15 74 3 16 57 270 82 385 3 14 7 36 10 50 5
26 34 168 38 185 10 43 16 74 20 95 3 14 14 68 26 120 12 52 24 104 26 115 2
11 6 29 9 40 2 11 6 31 9 45 3 14 38 162 77 330 39 168 72 312 74 320 10 43
38 146 42 154 3 5 11 -7 18 -26 6 -20 22 -52 34 -72z"/>
</g>
</svg>
